<svg id="圖層_1" data-name="圖層 1" xmlns="http://www.w3.org/2000/svg" viewBox="0 0 320 306.58"><defs><style>.cls-1{fill:#fc0;}</style></defs><title>1828970</title><path class="cls-1" d="M345,131c-1.68,5.61-5.57,9.47-9.87,13.21C314,162.61,293,181.14,271.88,199.54c-1.87,1.63-2.44,3.05-1.86,5.53,6.61,28.68,13.09,57.38,19.62,86.08,1.79,7.87-.4,14.8-6.32,18.87-6.54,4.5-13.2,4.16-19.91.14C238.16,295,212.87,280,187.65,264.77a4.41,4.41,0,0,0-5.31,0C157.2,279.93,132,294.93,106.84,310c-4.78,2.87-9.71,4.2-15.17,2.51-8.78-2.71-13.59-11.38-11.46-20.79,6.26-27.69,12.44-55.39,19-83,1.19-5,.54-8-3.58-11.54-21.21-18.13-42-36.73-63.07-55A25.64,25.64,0,0,1,25,131v-6.25c2.9-10.09,10-14.28,20.07-14.39,2.08,0,4.15-.37,6.22-.56q39.36-3.54,78.71-7a4.25,4.25,0,0,0,4-3c11.5-27.09,23.14-54.12,34.64-81.22,3.12-7.33,8.27-11.79,16.35-11.79s13.21,4.51,16.32,11.83C212.85,45.63,224.49,72.66,236,99.76a4.27,4.27,0,0,0,4.06,3q36.25,3.15,72.49,6.44c5.7.51,11.4,1,17.09,1.7,7.74.93,12.66,5.28,14.82,12.77a6.16,6.16,0,0,0,.56,1.08ZM185,31.39c-.84,1.86-1.37,3-1.85,4.08q-16,37.43-31.95,74.88c-3,7.07-7.94,11.24-15.7,11.93q-35.29,3.16-70.59,6.4c-4.94.44-9.87.94-15.57,1.48,1.35,1.24,2.14,2,2.95,2.71q31,27.18,62,54.36c5.64,4.93,7.6,11,6,18.24q-7.58,33.32-15.14,66.63c-1.32,5.8-2.59,11.62-4,17.95,1.44-.83,2.33-1.34,3.22-1.87,23.21-13.88,46.5-27.66,69.61-41.71,7.5-4.56,14.4-4.63,21.91-.07,23.12,14,46.4,27.82,69.61,41.7,1,.57,1.91,1.12,3.23,1.89-.17-1-.24-1.48-.35-2-6.17-27.28-12.3-54.58-18.57-81.84-1.79-7.79.16-14,6.22-19.29,17.22-15,34.32-30,51.46-45.09,4.2-3.68,8.39-7.38,12.94-11.4-1.22-.26-1.89-.48-2.58-.55-27.47-2.51-54.93-5.09-82.42-7.44-8.11-.7-13.55-4.46-16.69-12-6-14.29-12.11-28.52-18.19-42.77C195.51,55.84,190.44,44,185,31.39Z" transform="translate(-25 -6.71)"/></svg>